<svg xmlns="http://www.w3.org/2000/svg" xmlns:xlink="http://www.w3.org/1999/xlink" id="Layer_1" x="0" y="0" enable-background="new 0 0 351 85.6" version="1.0" viewBox="0 0 351 85.6" xml:space="preserve"><switch><g><g id="XMLID_6_"><path id="XMLID_170_" fill="#1A1A75" d="M225.75,65.91c-0.14-1-0.56-1.88-1.12-2.71c-2.12-3.19-4.23-6.39-6.39-9.55 c-0.63-0.93-1.36-1.8-2.12-2.63c-1.37-1.48-3.05-2.48-5.01-3c-0.16-0.04-0.31-0.12-0.48-0.19c1.16-0.38,2.3-0.67,3.39-1.11 c5.08-2.02,8.46-5.59,9.77-10.95c0.9-3.7,0.77-7.42-0.36-11.07c-1.11-3.57-3.35-6.26-6.59-8.12c-1.17-0.67-2.4-1.17-3.69-1.57 c-3.06-0.95-6.22-1.22-9.4-1.23c-6.58-0.02-13.16-0.01-19.74,0c-0.63,0-1.27,0.04-1.9,0.12c-2.24,0.28-3.86,1.72-4.34,3.93 c-0.17,0.8-0.24,1.63-0.24,2.45c-0.01,14.83-0.01,29.66-0.01,44.49c0,0.61,0.04,1.22,0.11,1.83c0.29,2.42,1.93,4.26,4.3,4.84 c1.04,0.25,2.09,0.3,3.15,0.14c2.36-0.37,3.92-1.68,4.65-3.96c0.28-0.86,0.3-1.75,0.3-2.65c0-5.05,0-10.11,0-15.16 c0-0.28,0-0.56,0-0.87c0.18-0.04,0.25-0.07,0.31-0.07c2.33,0,4.65-0.04,6.98,0.02c2.03,0.05,3.73,0.89,5.03,2.46 c0.43,0.52,0.85,1.07,1.23,1.63c3.59,5.32,7.2,10.62,10.74,15.97c2.18,3.31,6.98,3.82,9.89,1.21 C225.5,69.03,225.99,67.6,225.75,65.91z M208.69,38.14c-1.2,0.57-2.49,0.87-3.8,0.99c-1.08,0.1-2.17,0.15-3.25,0.15h-11.71 c0-5.18,0-10.29,0-15.44c0-0.11,0-0.21,0-0.32v-0.06h1.25v0c3.95,0,7.89-0.01,11.84,0.01c1.55,0.01,3.09,0.22,4.58,0.68 c2.55,0.8,4.43,2.42,4.76,6.04c0.12,1.32,0.08,2.63-0.28,3.92C211.55,35.97,210.43,37.32,208.69,38.14z"/><g id="XMLID_49_"><g id="XMLID_165_"><circle id="XMLID_39_" cx="126.48" cy="41.6" r="32.36" fill="#1A1A75"/><path id="XMLID_166_" fill="#1A1A75" d="M126.48,75.68c-18.79,0-34.08-15.29-34.08-34.08s15.29-34.08,34.08-34.08 s34.08,15.29,34.08,34.08S145.27,75.68,126.48,75.68z M126.48,10.97c-16.89,0-30.63,13.74-30.63,30.63s13.74,30.63,30.63,30.63 s30.63-13.74,30.63-30.63S143.37,10.97,126.48,10.97z"/></g><path id="XMLID_38_" fill="#FFF" d="M145.71,39.57c-0.32,0-1.55-0.1-2.2,1.03c-0.65,1.14-0.88,1.27-1.34,2.62 c-0.46,1.35-3.1,7.37-6.34,6.63c0,0-3.65,0.1-5.62-4.89c-1.06-2.69-1.19-3.43-2.06-4.65c-0.07-0.09-0.23-0.32-0.5-0.5 c-0.85-0.56-2.09-0.3-2.88,0.39c-0.52,0.46-0.81,1.08-1.23,2.02c-0.21,0.46-0.33,0.81-0.36,0.91c-0.68,1.92-1.69,4.75-3.72,5.96 c-1.62,0.96-3.76,0.8-5.19-0.2c-0.72-0.5-1.2-1.16-1.59-1.69c-0.71-0.97-1.19-2.03-1.67-3.3c-0.76-2.03-1.18-3.3-2.11-3.96 c-0.92-0.66-0.7-0.61-1.73-0.69c-1.04-0.08-1.43-1.06-1.43-1.42c0-0.37,0.31-1.2,0.55-1.48c0.24-0.28,0.59-0.26,0.59-0.26 c0.58-0.06,2.56-0.03,3.9,1.42c1.34,1.45,2.22,2.82,2.82,4.78c0.57,1.87,1.82,4.35,3.29,4.41c0.91,0.04,1.79-0.9,1.96-1.08 c0.08-0.08,0.33-0.36,0.74-1.15c0.57-1.09,0.84-2,0.88-2.12c0.33-1.08,1.22-4.04,3.27-5.31c1.36-0.85,3.4-1.06,4.95-0.28 c1.28,0.64,2.38,2.16,3.75,5.56c1.51,3.76,2.78,4.35,3.44,4.42c0.19,0.02,0.36,0,0.36,0c1-0.13,1.63-1.25,1.92-1.77 c1.58-2.86,1.79-4.37,3.06-6.1c0.57-0.78,1.72-2.34,3.35-2.38c1.12-0.03,2.41,0.67,2.48,1.45 C147.15,39.01,146.04,39.57,145.71,39.57z"/><g id="XMLID_33_" opacity=".05"><line id="XMLID_4_" x1="106.73" x2="106.73" y1="39.27" y2="39.27" fill="#C3EDEC"/><g id="XMLID_34_"><path id="XMLID_3_" fill="#C3EDEC" fill-rule="evenodd" d="M144,29.12l-3.42,6.61l-5.35,0.61l-3.37-3.9 l3.3-2.31l0.88-12.17c1.1-1.97,2.2-3.94,3.31-5.91c-2.68-1.12-7.65-2.78-14.02-2.51c-7.24,0.31-12.57,2.96-15.14,4.46 c0.65,1.03,1.33,2.32,1.87,3.88c0.24,0.68,0.42,1.33,0.56,1.94l7.21,2.68l-4.54,14.54l-6.31,2.84l4.71,5.34l13.96-0.33 l3.72,8.62l-1.85,10.13c0.04-0.01,0.08-0.01,0.12-0.02c0,0,0.08-0.01,0.15-0.02c0.1-0.02,4.91,2.78,11.41,6.75 c0.44-0.1,0.97-0.26,1.54-0.51c0.67-0.3,1.22-0.64,1.63-0.94c-0.83-0.85-1.77-2.11-2.23-3.81c-0.16-0.58-0.21-1.06-0.25-1.38 c-0.34-2.93,0.49-5.82,2.32-8.12c0.85-1.07,1.88-1.95,3.02-2.63l-6.75-7.17l5.86-10.73L144,29.12z" clip-rule="evenodd"/><path id="XMLID_35_" fill="#C3EDEC" fill-rule="evenodd" d="M123.2,69.91c0.35-1.49,1-2.89,1.9-4.1 l-2.08-8.29l-7.82-8.58l-6.41-1.96c-0.12-0.1-0.22-0.22-0.33-0.33c-0.84,3.03-2.95,5.58-5.78,6.98 c-2.76,1.28-4.19,3.42-3.76,4.93c0.08,0.3,0.32,0.85,1.13,1.39c0.46-0.5,4-4.31,7.24-5.11c0.69-0.17,1.38-0.25,1.38-0.25 c2.93-0.34,5.82,0.49,8.12,2.32c2.31,1.83,3.77,4.46,4.1,7.39c0,0,0.08,0.69,0.07,1.41c-0.04,2.97-1.63,6.06-2.24,7.16 c0.12,0.07,1.4,0.84,2.74,0.26C122.65,72.61,123.37,71.31,123.2,69.91z" clip-rule="evenodd"/></g></g><g id="XMLID_2_"><g id="XMLID_154_"><path id="XMLID_32_" fill="#9FCFAC" d="M134.82,21.62l8.59-7.86c2.08-2,2.8-4.98,1.84-7.55c-1.24-3.32-4.9-4.99-7.8-4.35 c-3.19,0.69-4.95,3.57-5.34,5.72c-0.1,0.55-0.04,0.68,0,2.08c0.06,2.19,0.08,7.76,0.56,11.24c0.05,0.33,0.15,1.02,0.61,1.23 C133.82,22.38,134.56,21.83,134.82,21.62z"/><path id="XMLID_155_" fill="#1A1877" d="M133.58,23.92c-0.43,0-0.78-0.11-1.02-0.22c-1.34-0.61-1.54-2.08-1.6-2.56 c-0.41-3-0.49-7.42-0.54-10.07c-0.01-0.53-0.02-0.99-0.03-1.36c-0.01-0.39-0.02-0.69-0.03-0.91 c-0.03-0.61-0.04-0.94,0.06-1.51c0.51-2.83,2.81-6.27,6.67-7.11c3.96-0.86,8.35,1.58,9.79,5.44c1.2,3.23,0.32,6.92-2.26,9.39 l-8.71,7.96C134.99,23.7,134.2,23.92,133.58,23.92z M138.7,3.45c-0.3,0-0.6,0.03-0.88,0.09c-2.46,0.54-3.74,2.89-4,4.34 c-0.03,0.19-0.03,0.22-0.01,0.76c0.01,0.24,0.02,0.55,0.03,0.96c0.01,0.37,0.02,0.85,0.03,1.39c0.04,2.31,0.11,6.02,0.41,8.78 l7.98-7.3c1.55-1.49,2.11-3.73,1.39-5.67C142.83,4.65,140.61,3.45,138.7,3.45z"/></g></g><g id="XMLID_29_"><g id="XMLID_148_"><path id="XMLID_30_" fill="#91DFFE" d="M145.6,31.89l11.64-0.17c2.88-0.12,5.4-1.87,6.39-4.42c1.28-3.3-0.36-6.98-2.95-8.44 c-2.85-1.6-6.07-0.62-7.79,0.74c-0.44,0.34-0.49,0.48-1.38,1.55c-1.41,1.68-5.09,5.85-7.05,8.78 c-0.19,0.28-0.56,0.86-0.36,1.32C144.35,31.8,145.27,31.88,145.6,31.89z"/><path id="XMLID_149_" fill="#1A1877" d="M145.57,33.62l-0.05,0c-2-0.1-2.73-1.09-2.99-1.67c-0.59-1.34,0.23-2.58,0.5-2.98 c1.68-2.51,4.56-5.88,6.28-7.89c0.35-0.41,0.65-0.76,0.88-1.04c0.26-0.3,0.44-0.53,0.58-0.71c0.38-0.47,0.59-0.73,1.05-1.09 c2.26-1.78,6.26-2.82,9.7-0.89c3.53,1.98,5.2,6.72,3.71,10.57c-1.25,3.21-4.36,5.38-7.93,5.53L145.57,33.62z M157.5,19.77 c-1.44,0-2.78,0.59-3.53,1.19c-0.15,0.12-0.17,0.14-0.52,0.56c-0.15,0.19-0.35,0.43-0.62,0.75c-0.24,0.29-0.55,0.65-0.9,1.06 c-1.5,1.76-3.91,4.58-5.53,6.84L157.22,30c2.15-0.09,4.06-1.39,4.8-3.32c0.97-2.5-0.35-5.28-2.18-6.31 C159.08,19.94,158.27,19.77,157.5,19.77z"/></g></g><g id="XMLID_27_"><g id="XMLID_142_"><path id="XMLID_28_" fill="#FFF" d="M147.72,46.6l8.4,8.06c2.13,1.94,5.15,2.47,7.65,1.34c3.23-1.45,4.66-5.22,3.84-8.07 c-0.9-3.14-3.89-4.71-6.06-4.95c-0.55-0.06-0.69,0-2.07,0.13c-2.18,0.2-7.73,0.59-11.18,1.29c-0.33,0.07-1.01,0.21-1.19,0.69 C146.89,45.65,147.49,46.35,147.72,46.6z"/><path id="XMLID_143_" fill="#1A1877" d="M161.01,58.32c-2.17,0-4.35-0.82-6.06-2.38l-8.51-8.17 c-1.35-1.48-1.18-2.69-0.95-3.29c0.52-1.37,1.98-1.67,2.45-1.77c2.96-0.6,7.38-0.98,10.01-1.2c0.53-0.04,0.99-0.08,1.36-0.12 c0.4-0.04,0.69-0.07,0.91-0.09c0.6-0.06,0.93-0.1,1.51-0.03c2.86,0.32,6.43,2.4,7.52,6.19c1.12,3.9-1.03,8.44-4.79,10.12 C163.37,58.08,162.19,58.32,161.01,58.32z M149.51,45.93l7.8,7.49c1.59,1.45,3.86,1.86,5.75,1.01c2.44-1.1,3.46-4,2.88-6.02 c-0.7-2.42-3.13-3.55-4.59-3.71c-0.19-0.02-0.22-0.02-0.76,0.04c-0.24,0.03-0.55,0.06-0.96,0.1 c-0.37,0.03-0.84,0.07-1.39,0.12C155.94,45.14,152.24,45.46,149.51,45.93z"/></g></g><g id="XMLID_25_"><g id="XMLID_136_"><path id="XMLID_26_" fill="#9FCFAC" d="M139.69,59.08l2.57,11.36c0.71,2.79,2.94,4.89,5.65,5.34 c3.49,0.57,6.76-1.79,7.65-4.63c0.98-3.12-0.65-6.07-2.33-7.47c-0.43-0.36-0.57-0.38-1.8-1.03 c-1.93-1.03-6.78-3.77-10.05-5.08c-0.31-0.13-0.96-0.38-1.37-0.08C139.53,57.84,139.64,58.76,139.69,59.08z"/><path id="XMLID_137_" fill="#1A1877" d="M148.92,77.58c-0.43,0-0.85-0.03-1.28-0.1c-3.4-0.55-6.17-3.15-7.04-6.61l-2.6-11.51 c-0.32-1.98,0.5-2.9,1.02-3.27c1.19-0.86,2.57-0.31,3.02-0.12c2.8,1.13,6.69,3.24,9.01,4.51c0.47,0.26,0.88,0.48,1.2,0.65 c0.35,0.19,0.61,0.32,0.81,0.42c0.54,0.28,0.84,0.43,1.28,0.81c2.21,1.84,4.05,5.54,2.87,9.31 C156.12,75.13,152.57,77.58,148.92,77.58z M141.56,59.51l2.39,10.55c0.53,2.09,2.2,3.68,4.24,4.01 c2.65,0.43,5.09-1.43,5.72-3.44c0.75-2.41-0.66-4.68-1.79-5.63c-0.15-0.13-0.18-0.14-0.66-0.39 c-0.21-0.11-0.49-0.25-0.86-0.45c-0.33-0.18-0.75-0.4-1.22-0.66C147.36,62.4,144.1,60.63,141.56,59.51z"/></g></g><g id="XMLID_23_"><g id="XMLID_130_"><path id="XMLID_24_" fill="#91DFFE" d="M125.09,63.51l-4.83,10.6c-1.13,2.65-0.62,5.68,1.26,7.67 c2.44,2.57,6.46,2.67,8.89,0.95c2.66-1.89,3.16-5.22,2.67-7.35c-0.12-0.54-0.23-0.65-0.81-1.91 c-0.91-1.99-3.11-7.11-4.91-10.13c-0.17-0.29-0.53-0.88-1.04-0.89C125.71,62.42,125.25,63.21,125.09,63.51z"/><path id="XMLID_131_" fill="#1A1877" d="M126.62,85.6c-2.34,0-4.71-0.91-6.35-2.64c-2.37-2.5-3-6.24-1.6-9.53l4.9-10.73 c0.94-1.77,2.15-2,2.79-1.99c1.47,0.04,2.23,1.31,2.48,1.73c1.55,2.59,3.36,6.63,4.44,9.04c0.22,0.49,0.41,0.92,0.56,1.25 c0.16,0.36,0.29,0.62,0.39,0.83c0.26,0.55,0.4,0.85,0.53,1.42c0.64,2.81-0.13,6.86-3.36,9.15 C130.01,85.12,128.32,85.6,126.62,85.6z M126.31,64.98l-4.49,9.84c-0.84,1.98-0.48,4.26,0.94,5.76 c1.84,1.94,4.92,1.95,6.63,0.73c2.06-1.46,2.32-4.12,1.99-5.56c-0.04-0.19-0.05-0.22-0.29-0.71c-0.1-0.22-0.24-0.5-0.41-0.88 c-0.16-0.34-0.35-0.78-0.58-1.28C129.18,70.79,127.66,67.4,126.31,64.98z"/></g></g><g id="XMLID_20_"><g id="XMLID_89_"><path id="XMLID_22_" fill="#FFF" d="M118.28,21.62l-8.59-7.86c-2.08-2-2.8-4.98-1.84-7.55c1.24-3.32,4.9-4.99,7.8-4.35 c3.19,0.69,4.95,3.57,5.34,5.72c0.1,0.55,0.04,0.68,0,2.08c-0.06,2.19-0.08,7.76-0.56,11.24c-0.05,0.33-0.15,1.02-0.61,1.23 C119.28,22.38,118.54,21.83,118.28,21.62z"/><path id="XMLID_90_" fill="#1A1877" d="M119.52,23.92c-0.62,0-1.41-0.22-2.32-0.95l-0.08-0.07l-8.59-7.86 c-2.61-2.51-3.49-6.2-2.29-9.43c1.44-3.86,5.83-6.3,9.79-5.44c3.86,0.84,6.16,4.27,6.67,7.11c0.1,0.57,0.09,0.91,0.06,1.51 c-0.01,0.23-0.02,0.52-0.03,0.91c-0.01,0.37-0.02,0.83-0.03,1.36c-0.05,2.65-0.13,7.07-0.54,10.07 c-0.07,0.48-0.27,1.95-1.6,2.56C120.3,23.81,119.95,23.92,119.52,23.92z M114.4,3.45c-1.91,0-4.13,1.2-4.94,3.36 c-0.72,1.94-0.17,4.18,1.42,5.7l7.95,7.27c0.29-2.76,0.36-6.47,0.41-8.78c0.01-0.54,0.02-1.01,0.03-1.39 c0.01-0.42,0.02-0.73,0.03-0.97c0.02-0.54,0.02-0.57-0.01-0.76c-0.26-1.45-1.54-3.8-4-4.34C115,3.49,114.71,3.45,114.4,3.45z"/></g></g><g id="XMLID_15_"><g id="XMLID_217_"><g id="XMLID_218_"><path id="XMLID_222_" fill="#91DFFE" d="M107.5,31.89l-11.64-0.17c-2.88-0.12-5.4-1.87-6.39-4.42 c-1.28-3.3,0.36-6.98,2.95-8.44c2.85-1.6,6.07-0.62,7.79,0.74c0.44,0.34,0.49,0.48,1.38,1.55c1.41,1.68,5.09,5.85,7.05,8.78 c0.19,0.28,0.56,0.86,0.36,1.32C108.75,31.8,107.83,31.88,107.5,31.89z"/><path id="XMLID_219_" fill="#1A1877" d="M107.53,33.62l-11.7-0.17c-3.61-0.15-6.73-2.31-7.97-5.53 c-1.49-3.84,0.18-8.58,3.71-10.57c3.44-1.93,7.44-0.9,9.7,0.89c0.46,0.36,0.67,0.62,1.05,1.09c0.14,0.18,0.33,0.4,0.58,0.71 c0.24,0.28,0.54,0.64,0.89,1.04c1.72,2.01,4.59,5.37,6.27,7.88c0.27,0.41,1.1,1.64,0.5,2.98c-0.26,0.58-0.99,1.57-2.99,1.67 L107.53,33.62z M95.61,19.77c-0.77,0-1.58,0.17-2.35,0.6c-1.83,1.03-3.15,3.81-2.18,6.31c0.75,1.93,2.65,3.24,4.85,3.32 l10.77,0.16c-1.61-2.25-4.02-5.08-5.52-6.83c-0.35-0.42-0.66-0.78-0.9-1.06c-0.27-0.32-0.46-0.56-0.62-0.74 c-0.34-0.42-0.36-0.44-0.52-0.56C98.38,20.36,97.05,19.77,95.61,19.77z"/></g></g></g><g id="XMLID_13_"><g id="XMLID_59_"><path id="XMLID_14_" fill="#9FCFAC" d="M105.39,46.6l-8.4,8.06c-2.13,1.94-5.15,2.47-7.65,1.34 c-3.23-1.45-4.66-5.22-3.84-8.07c0.9-3.14,3.89-4.71,6.06-4.95c0.55-0.06,0.69,0,2.07,0.13c2.18,0.2,7.73,0.59,11.18,1.29 c0.33,0.07,1.01,0.21,1.19,0.69C106.21,45.65,105.61,46.35,105.39,46.6z"/><path id="XMLID_60_" fill="#1A1877" d="M92.08,58.32c-1.18,0-2.35-0.24-3.46-0.74c-3.76-1.68-5.91-6.23-4.79-10.12 c1.09-3.8,4.66-5.87,7.52-6.19c0.58-0.06,0.91-0.03,1.51,0.03c0.23,0.02,0.52,0.06,0.91,0.09c0.37,0.03,0.83,0.07,1.36,0.12 c2.64,0.22,7.05,0.59,10.01,1.2c0.48,0.1,1.93,0.39,2.46,1.77c0.23,0.59,0.4,1.81-0.95,3.29l-0.08,0.08l-8.4,8.06 C96.45,57.49,94.26,58.32,92.08,58.32z M91.93,44.68c-0.06,0-0.11,0-0.18,0.01c-1.46,0.16-3.9,1.29-4.59,3.71 c-0.58,2.02,0.44,4.92,2.88,6.02c1.89,0.85,4.16,0.44,5.78-1.04l7.77-7.46c-2.73-0.47-6.43-0.78-8.74-0.98 c-0.54-0.05-1.01-0.09-1.39-0.12c-0.42-0.04-0.72-0.07-0.96-0.1C92.17,44.7,92.03,44.68,91.93,44.68z"/></g></g><g id="XMLID_1_"><g id="XMLID_53_"><path id="XMLID_11_" fill="#FFF" d="M113.41,59.08l-2.57,11.36c-0.71,2.79-2.94,4.89-5.65,5.34 c-3.49,0.57-6.76-1.79-7.65-4.63c-0.98-3.12,0.65-6.07,2.33-7.47c0.43-0.36,0.57-0.38,1.8-1.03 c1.93-1.03,6.78-3.77,10.05-5.08c0.31-0.13,0.96-0.38,1.37-0.08C113.58,57.84,113.46,58.76,113.41,59.08z"/><path id="XMLID_54_" fill="#1A1877" d="M104.19,77.58c-3.65,0-7.21-2.45-8.29-5.92c-1.18-3.77,0.66-7.47,2.87-9.31 c0.45-0.37,0.74-0.53,1.28-0.8c0.2-0.1,0.46-0.24,0.81-0.43c0.32-0.17,0.73-0.4,1.2-0.65c2.32-1.27,6.21-3.38,9.02-4.51 c0.45-0.18,1.83-0.74,3.02,0.12c0.51,0.37,1.33,1.29,1.02,3.27l-0.02,0.11l-2.57,11.36c-0.89,3.51-3.65,6.1-7.05,6.66 C105.04,77.55,104.61,77.58,104.19,77.58z M111.54,59.51c-2.54,1.11-5.8,2.89-7.83,3.99c-0.48,0.26-0.89,0.49-1.22,0.66 c-0.37,0.2-0.64,0.34-0.86,0.45c-0.48,0.25-0.5,0.26-0.66,0.39c-1.13,0.94-2.54,3.22-1.79,5.63c0.63,2.01,3.08,3.87,5.72,3.44 c2.04-0.33,3.71-1.93,4.25-4.06L111.54,59.51z"/></g></g></g><path id="XMLID_40_" fill="#1A1A75" d="M66.63,70.24c-1.64,1.14-3.48,1.72-5.53,1.72c-2.07,0-3.97-0.61-5.69-1.84 c-1.72-1.22-2.91-3.01-3.57-5.35L40.59,26.65L29.34,64.77c-0.67,2.34-1.85,4.12-3.55,5.35c-1.7,1.23-3.59,1.84-5.67,1.84 c-2.05,0-3.89-0.57-5.53-1.72c-1.63-1.14-2.71-2.71-3.21-4.71L0.2,21.03C0.07,20.47,0,19.94,0,19.43c0-1.7,0.6-3.09,1.8-4.17 c1.2-1.08,2.58-1.62,4.15-1.62c1.33,0,2.51,0.43,3.55,1.3s1.74,2.15,2.12,3.85l9.34,40.15l10.86-36.6c0.8-2.87,1.87-5,3.21-6.39 c1.34-1.38,3.2-2.08,5.57-2.08c2.37,0,4.23,0.69,5.59,2.08c1.36,1.38,2.43,3.51,3.23,6.39l10.82,36.6l9.34-40.15 c0.37-1.7,1.09-2.99,2.14-3.85c1.05-0.86,2.23-1.3,3.53-1.3c1.57,0,2.95,0.54,4.15,1.62c1.2,1.08,1.8,2.47,1.8,4.17 c0,0.51-0.07,1.04-0.2,1.6l-11.14,44.5C69.34,67.52,68.27,69.09,66.63,70.24z"/><path id="XMLID_16_" fill="#1A1A75" d="M237.21,69.86c-1.22-1.2-1.84-3.33-1.84-6.39v-43.3c0-1.97,0.7-3.5,2.1-4.59 c1.4-1.09,3.13-1.64,5.21-1.64h14.21c2.58,0,4.9,0.12,6.96,0.36c2.06,0.24,4.07,0.68,6.03,1.32c1.96,0.64,3.58,1.48,4.87,2.53 c1.29,1.05,2.33,2.44,3.11,4.15c0.79,1.72,1.18,3.72,1.18,6.01c0,3.38-0.94,6.27-2.82,8.68c-1.88,2.41-4.52,3.92-7.92,4.53v0.16 c4.04,0.59,7.23,2.12,9.56,4.61c2.33,2.49,3.49,5.69,3.49,9.6c0,2.02-0.43,3.97-1.3,5.83c-0.87,1.86-2.12,3.54-3.75,5.03 c-1.64,1.49-3.79,2.68-6.47,3.57c-2.67,0.89-5.69,1.34-9.04,1.34h-18.12C240.26,71.65,238.43,71.06,237.21,69.86z M255.13,38.37 c4.04,0,7.02-0.62,8.92-1.86c1.9-1.24,2.85-3.41,2.85-6.53c0-1.54-0.26-2.83-0.78-3.85c-0.52-1.03-1.3-1.79-2.34-2.3 c-1.04-0.5-2.15-0.85-3.33-1.02c-1.18-0.17-2.64-0.26-4.37-0.26h-8.3v15.81H255.13z M256.21,62.99c2.18,0,3.97-0.11,5.37-0.32 s2.65-0.62,3.77-1.22c1.12-0.6,1.93-1.47,2.43-2.62c0.5-1.14,0.76-2.61,0.76-4.39c0-1.76-0.31-3.2-0.92-4.33 c-0.61-1.13-1.56-2-2.83-2.59c-1.28-0.6-2.71-1-4.29-1.22c-1.58-0.21-3.56-0.32-5.93-0.32h-6.78v17H256.21z"/><path id="XMLID_10_" fill="#1A1A75" d="M293.09,69.12c-1.12-1.69-1.68-3.73-1.68-6.13V20.65c0-1.94,0.63-3.55,1.88-4.81 c1.25-1.26,2.77-1.89,4.55-1.89c1.73,0,3.23,0.63,4.49,1.89c1.26,1.26,1.89,2.87,1.89,4.81v41.27h21.51 c1.36,0,2.47,0.48,3.35,1.44c0.88,0.96,1.32,2.1,1.32,3.43c0,1.33-0.44,2.47-1.32,3.43c-0.88,0.96-2,1.44-3.35,1.44h-27.86 C295.8,71.65,294.2,70.81,293.09,69.12z"/><path id="XMLID_7_" fill="#1A1A75" d="M340.06,69.78c-1.25-1.26-1.88-2.87-1.88-4.81v-44.3c0-1.94,0.62-3.55,1.88-4.83 c1.25-1.28,2.75-1.92,4.51-1.92s3.27,0.64,4.53,1.92s1.9,2.89,1.9,4.83v44.3c0,1.94-0.63,3.55-1.9,4.81 c-1.26,1.26-2.77,1.9-4.53,1.9S341.32,71.04,340.06,69.78z"/></g></g></switch></svg>